<svg width="1290" height="2018" viewBox="0 0 1290 2018" fill="none" xmlns="http://www.w3.org/2000/svg">
<rect y="0.318542" width="1290" height="2017.68" fill="#D9D9D9"/>
<path d="M267.79 1043V975.509H275.567V1000.42H276.226C276.798 999.544 277.588 998.423 278.599 997.061C279.632 995.677 281.104 994.447 283.015 993.37C284.948 992.272 287.563 991.723 290.858 991.723C295.12 991.723 298.877 992.788 302.129 994.919C305.38 997.05 307.918 1000.07 309.741 1003.98C311.565 1007.89 312.476 1012.51 312.476 1017.82C312.476 1023.18 311.565 1027.83 309.741 1031.76C307.918 1035.67 305.391 1038.7 302.162 1040.86C298.932 1042.99 295.208 1044.05 290.99 1044.05C287.738 1044.05 285.135 1043.52 283.18 1042.44C281.224 1041.34 279.719 1040.1 278.665 1038.72C277.61 1037.31 276.798 1036.15 276.226 1035.22H275.304V1043H267.79ZM275.435 1017.69C275.435 1021.51 275.996 1024.89 277.116 1027.81C278.237 1030.71 279.873 1032.98 282.026 1034.63C284.179 1036.26 286.816 1037.07 289.935 1037.07C293.187 1037.07 295.9 1036.21 298.075 1034.5C300.272 1032.76 301.92 1030.43 303.018 1027.51C304.139 1024.57 304.699 1021.29 304.699 1017.69C304.699 1014.13 304.15 1010.92 303.051 1008.07C301.975 1005.19 300.338 1002.92 298.141 1001.25C295.966 999.555 293.231 998.709 289.935 998.709C286.772 998.709 284.113 999.511 281.96 1001.11C279.807 1002.7 278.182 1004.92 277.083 1007.77C275.985 1010.61 275.435 1013.91 275.435 1017.69ZM339.268 1044.19C336.061 1044.19 333.15 1043.58 330.535 1042.37C327.921 1041.14 325.845 1039.38 324.307 1037.07C322.769 1034.74 322 1031.93 322 1028.63C322 1025.73 322.571 1023.38 323.714 1021.58C324.856 1019.76 326.383 1018.33 328.294 1017.3C330.206 1016.26 332.315 1015.49 334.622 1014.99C336.951 1014.46 339.29 1014.04 341.641 1013.74C344.717 1013.34 347.21 1013.04 349.122 1012.85C351.055 1012.63 352.461 1012.26 353.34 1011.76C354.241 1011.25 354.691 1010.38 354.691 1009.12V1008.86C354.691 1005.61 353.801 1003.08 352.022 1001.28C350.264 999.478 347.595 998.577 344.014 998.577C340.301 998.577 337.39 999.39 335.281 1001.02C333.172 1002.64 331.689 1004.38 330.832 1006.22L323.45 1003.59C324.768 1000.51 326.526 998.116 328.723 996.402C330.942 994.667 333.358 993.458 335.973 992.777C338.609 992.074 341.202 991.723 343.75 991.723C345.376 991.723 347.243 991.92 349.352 992.316C351.483 992.689 353.538 993.469 355.515 994.656C357.514 995.842 359.173 997.633 360.491 1000.03C361.809 1002.42 362.468 1005.63 362.468 1009.65V1043H354.691V1036.15H354.296C353.768 1037.24 352.89 1038.42 351.659 1039.67C350.429 1040.92 348.792 1041.99 346.749 1042.87C344.706 1043.75 342.212 1044.19 339.268 1044.19ZM340.455 1037.2C343.53 1037.2 346.123 1036.6 348.232 1035.39C350.363 1034.18 351.967 1032.62 353.043 1030.71C354.142 1028.8 354.691 1026.79 354.691 1024.68V1017.56C354.362 1017.95 353.637 1018.32 352.516 1018.65C351.418 1018.95 350.143 1019.23 348.693 1019.47C347.265 1019.69 345.87 1019.89 344.508 1020.06C343.168 1020.22 342.08 1020.35 341.246 1020.46C339.224 1020.72 337.335 1021.15 335.577 1021.74C333.842 1022.32 332.436 1023.18 331.359 1024.35C330.305 1025.49 329.777 1027.05 329.777 1029.03C329.777 1031.73 330.777 1033.77 332.776 1035.16C334.798 1036.52 337.357 1037.2 340.455 1037.2ZM384.441 1012.55V1043H376.664V992.382H384.177V1000.29H384.836C386.023 997.72 387.824 995.655 390.241 994.095C392.657 992.514 395.777 991.723 399.6 991.723C403.027 991.723 406.026 992.426 408.596 993.832C411.167 995.216 413.166 997.325 414.594 1000.16C416.022 1002.97 416.736 1006.53 416.736 1010.84V1043H408.959V1011.36C408.959 1007.39 407.926 1004.29 405.861 1002.07C403.796 999.83 400.962 998.709 397.359 998.709C394.876 998.709 392.657 999.247 390.702 1000.32C388.769 1001.4 387.242 1002.97 386.121 1005.04C385.001 1007.1 384.441 1009.61 384.441 1012.55ZM438.725 1012.55V1043H430.948V992.382H438.462V1000.29H439.121C440.307 997.72 442.108 995.655 444.525 994.095C446.942 992.514 450.062 991.723 453.884 991.723C457.312 991.723 460.31 992.426 462.881 993.832C465.451 995.216 467.451 997.325 468.879 1000.16C470.307 1002.97 471.021 1006.53 471.021 1010.84V1043H463.243V1011.36C463.243 1007.39 462.211 1004.29 460.146 1002.07C458.08 999.83 455.246 998.709 451.643 998.709C449.161 998.709 446.942 999.247 444.987 1000.32C443.053 1001.4 441.526 1002.97 440.406 1005.04C439.285 1007.1 438.725 1009.61 438.725 1012.55ZM506.455 1044.05C501.578 1044.05 497.371 1042.98 493.833 1040.83C490.318 1038.65 487.605 1035.62 485.694 1031.73C483.804 1027.82 482.86 1023.27 482.86 1018.09C482.86 1012.9 483.804 1008.33 485.694 1004.38C487.605 1000.4 490.263 997.303 493.669 995.084C497.096 992.843 501.094 991.723 505.664 991.723C508.3 991.723 510.904 992.162 513.474 993.041C516.045 993.92 518.385 995.348 520.494 997.325C522.603 999.28 524.283 1001.87 525.536 1005.1C526.788 1008.33 527.414 1012.31 527.414 1017.03V1020.33H488.396V1013.6H519.505C519.505 1010.75 518.934 1008.2 517.791 1005.96C516.671 1003.72 515.067 1001.95 512.98 1000.65C510.915 999.357 508.476 998.709 505.664 998.709C502.566 998.709 499.886 999.478 497.623 1001.02C495.382 1002.53 493.658 1004.51 492.449 1006.95C491.241 1009.39 490.637 1012 490.637 1014.79V1019.27C490.637 1023.1 491.296 1026.34 492.614 1028.99C493.954 1031.63 495.811 1033.64 498.183 1035.03C500.556 1036.39 503.313 1037.07 506.455 1037.07C508.498 1037.07 510.344 1036.78 511.991 1036.21C513.661 1035.62 515.1 1034.74 516.308 1033.58C517.517 1032.39 518.45 1030.92 519.11 1029.16L526.623 1031.27C525.832 1033.82 524.503 1036.06 522.636 1037.99C520.768 1039.9 518.461 1041.4 515.715 1042.47C512.969 1043.53 509.882 1044.05 506.455 1044.05ZM539.245 1043V992.382H546.758V1000.03H547.286C548.208 997.523 549.878 995.491 552.295 993.931C554.711 992.371 557.436 991.591 560.467 991.591C561.039 991.591 561.753 991.602 562.61 991.624C563.466 991.646 564.114 991.679 564.554 991.723V999.632C564.29 999.566 563.686 999.467 562.741 999.335C561.819 999.181 560.841 999.105 559.808 999.105C557.348 999.105 555.151 999.621 553.217 1000.65C551.306 1001.66 549.79 1003.07 548.67 1004.87C547.571 1006.65 547.022 1008.68 547.022 1010.97V1043H539.245ZM594.46 972.345L572.71 1053.15H565.592L587.342 972.345H594.46ZM624.243 1044.05C619.497 1044.05 615.411 1042.93 611.984 1040.69C608.556 1038.45 605.92 1035.37 604.075 1031.43C602.229 1027.5 601.306 1023.01 601.306 1017.95C601.306 1012.81 602.251 1008.28 604.14 1004.34C606.052 1000.39 608.71 997.303 612.115 995.084C615.543 992.843 619.541 991.723 624.111 991.723C627.67 991.723 630.878 992.382 633.734 993.7C636.59 995.018 638.929 996.864 640.753 999.236C642.576 1001.61 643.708 1004.38 644.147 1007.54H636.37C635.777 1005.23 634.459 1003.19 632.415 1001.41C630.394 999.61 627.67 998.709 624.243 998.709C621.211 998.709 618.553 999.5 616.268 1001.08C614.005 1002.64 612.236 1004.85 610.962 1007.71C609.71 1010.54 609.084 1013.87 609.084 1017.69C609.084 1021.6 609.699 1025.01 610.929 1027.91C612.181 1030.81 613.939 1033.06 616.202 1034.66C618.487 1036.27 621.167 1037.07 624.243 1037.07C626.264 1037.07 628.098 1036.72 629.746 1036.01C631.394 1035.31 632.789 1034.3 633.931 1032.98C635.074 1031.66 635.887 1030.08 636.37 1028.24H644.147C643.708 1031.22 642.62 1033.92 640.885 1036.31C639.171 1038.68 636.897 1040.57 634.063 1041.98C631.251 1043.36 627.978 1044.05 624.243 1044.05ZM670.412 1044.19C667.204 1044.19 664.294 1043.58 661.679 1042.37C659.065 1041.14 656.989 1039.38 655.451 1037.07C653.913 1034.74 653.144 1031.93 653.144 1028.63C653.144 1025.73 653.715 1023.38 654.858 1021.58C656 1019.76 657.527 1018.33 659.438 1017.3C661.35 1016.26 663.459 1015.49 665.765 1014.99C668.094 1014.46 670.434 1014.04 672.785 1013.74C675.861 1013.34 678.354 1013.04 680.265 1012.85C682.199 1012.63 683.605 1012.26 684.484 1011.76C685.384 1011.25 685.835 1010.38 685.835 1009.12V1008.86C685.835 1005.61 684.945 1003.08 683.165 1001.28C681.408 999.478 678.739 998.577 675.158 998.577C671.445 998.577 668.534 999.39 666.425 1001.02C664.315 1002.64 662.833 1004.38 661.976 1006.22L654.594 1003.59C655.912 1000.51 657.67 998.116 659.867 996.402C662.086 994.667 664.502 993.458 667.117 992.777C669.753 992.074 672.345 991.723 674.894 991.723C676.52 991.723 678.387 991.92 680.496 992.316C682.627 992.689 684.681 993.469 686.659 994.656C688.658 995.842 690.317 997.633 691.635 1000.03C692.953 1002.42 693.612 1005.63 693.612 1009.65V1043H685.835V1036.15H685.439C684.912 1037.24 684.033 1038.42 682.803 1039.67C681.573 1040.92 679.936 1041.99 677.893 1042.87C675.85 1043.75 673.356 1044.19 670.412 1044.19ZM671.598 1037.2C674.674 1037.2 677.267 1036.6 679.376 1035.39C681.507 1034.18 683.111 1032.62 684.187 1030.71C685.286 1028.8 685.835 1026.79 685.835 1024.68V1017.56C685.505 1017.95 684.78 1018.32 683.66 1018.65C682.561 1018.95 681.287 1019.23 679.837 1019.47C678.409 1019.69 677.014 1019.89 675.652 1020.06C674.312 1020.22 673.224 1020.35 672.389 1020.46C670.368 1020.72 668.479 1021.15 666.721 1021.74C664.986 1022.32 663.579 1023.18 662.503 1024.35C661.448 1025.49 660.921 1027.05 660.921 1029.03C660.921 1031.73 661.921 1033.77 663.92 1035.16C665.941 1036.52 668.501 1037.2 671.598 1037.2ZM707.807 1043V992.382H715.321V1000.03H715.848C716.771 997.523 718.441 995.491 720.857 993.931C723.274 992.371 725.998 991.591 729.03 991.591C729.601 991.591 730.315 991.602 731.172 991.624C732.029 991.646 732.677 991.679 733.116 991.723V999.632C732.853 999.566 732.249 999.467 731.304 999.335C730.381 999.181 729.403 999.105 728.371 999.105C725.91 999.105 723.713 999.621 721.78 1000.65C719.869 1001.66 718.353 1003.07 717.232 1004.87C716.134 1006.65 715.585 1008.68 715.585 1010.97V1043H707.807ZM742.335 1043V992.382H749.849V1000.03H750.376C751.299 997.523 752.969 995.491 755.385 993.931C757.802 992.371 760.526 991.591 763.558 991.591C764.129 991.591 764.843 991.602 765.7 991.624C766.557 991.646 767.205 991.679 767.644 991.723V999.632C767.381 999.566 766.777 999.467 765.832 999.335C764.909 999.181 763.932 999.105 762.899 999.105C760.438 999.105 758.241 999.621 756.308 1000.65C754.397 1001.66 752.881 1003.07 751.76 1004.87C750.662 1006.65 750.113 1008.68 750.113 1010.97V1043H742.335ZM795.887 1044.05C791.317 1044.05 787.307 1042.97 783.858 1040.79C780.431 1038.62 777.751 1035.57 775.817 1031.66C773.906 1027.75 772.95 1023.18 772.95 1017.95C772.95 1012.68 773.906 1008.08 775.817 1004.15C777.751 1000.21 780.431 997.16 783.858 994.985C787.307 992.81 791.317 991.723 795.887 991.723C800.456 991.723 804.455 992.81 807.882 994.985C811.331 997.16 814.012 1000.21 815.923 1004.15C817.856 1008.08 818.823 1012.68 818.823 1017.95C818.823 1023.18 817.856 1027.75 815.923 1031.66C814.012 1035.57 811.331 1038.62 807.882 1040.79C804.455 1042.97 800.456 1044.05 795.887 1044.05ZM795.887 1037.07C799.358 1037.07 802.214 1036.18 804.455 1034.4C806.696 1032.62 808.354 1030.28 809.431 1027.38C810.507 1024.48 811.046 1021.34 811.046 1017.95C811.046 1014.57 810.507 1011.42 809.431 1008.5C808.354 1005.57 806.696 1003.21 804.455 1001.41C802.214 999.61 799.358 998.709 795.887 998.709C792.415 998.709 789.559 999.61 787.318 1001.41C785.077 1003.21 783.419 1005.57 782.342 1008.5C781.266 1011.42 780.727 1014.57 780.727 1017.95C780.727 1021.34 781.266 1024.48 782.342 1027.38C783.419 1030.28 785.077 1032.62 787.318 1034.4C789.559 1036.18 792.415 1037.07 795.887 1037.07ZM866.549 1003.72L859.563 1005.7C859.124 1004.53 858.475 1003.4 857.619 1002.3C856.784 1001.18 855.641 1000.26 854.191 999.533C852.741 998.808 850.885 998.445 848.622 998.445C845.524 998.445 842.943 999.159 840.878 1000.59C838.834 1001.99 837.813 1003.78 837.813 1005.96C837.813 1007.89 838.516 1009.42 839.922 1010.54C841.328 1011.66 843.525 1012.59 846.513 1013.34L854.027 1015.19C858.552 1016.28 861.925 1017.97 864.144 1020.23C866.363 1022.47 867.472 1025.36 867.472 1028.9C867.472 1031.8 866.637 1034.39 864.967 1036.67C863.32 1038.96 861.013 1040.76 858.047 1042.08C855.081 1043.4 851.632 1044.05 847.699 1044.05C842.536 1044.05 838.263 1042.93 834.88 1040.69C831.497 1038.45 829.355 1035.18 828.454 1030.87L835.836 1029.03C836.539 1031.75 837.868 1033.79 839.823 1035.16C841.8 1036.52 844.382 1037.2 847.567 1037.2C851.192 1037.2 854.07 1036.43 856.202 1034.89C858.355 1033.33 859.431 1031.47 859.431 1029.29C859.431 1027.53 858.816 1026.06 857.586 1024.88C856.355 1023.67 854.466 1022.77 851.917 1022.17L843.481 1020.2C838.845 1019.1 835.44 1017.39 833.265 1015.09C831.112 1012.76 830.036 1009.85 830.036 1006.35C830.036 1003.5 830.838 1000.97 832.441 998.775C834.067 996.578 836.275 994.853 839.065 993.601C841.877 992.349 845.063 991.723 848.622 991.723C853.631 991.723 857.564 992.821 860.42 995.018C863.298 997.215 865.341 1000.12 866.549 1003.72ZM900.402 1044.05C895.525 1044.05 891.317 1042.98 887.78 1040.83C884.265 1038.65 881.552 1035.62 879.64 1031.73C877.751 1027.82 876.806 1023.27 876.806 1018.09C876.806 1012.9 877.751 1008.33 879.64 1004.38C881.552 1000.4 884.21 997.303 887.615 995.084C891.043 992.843 895.041 991.723 899.611 991.723C902.247 991.723 904.851 992.162 907.421 993.041C909.992 993.92 912.331 995.348 914.44 997.325C916.55 999.28 918.23 1001.87 919.483 1005.1C920.735 1008.33 921.361 1012.31 921.361 1017.03V1020.33H882.343V1013.6H913.452C913.452 1010.75 912.881 1008.2 911.738 1005.96C910.618 1003.72 909.014 1001.95 906.927 1000.65C904.862 999.357 902.423 998.709 899.611 998.709C896.513 998.709 893.833 999.478 891.57 1001.02C889.329 1002.53 887.604 1004.51 886.396 1006.95C885.188 1009.39 884.584 1012 884.584 1014.79V1019.27C884.584 1023.1 885.243 1026.34 886.561 1028.99C887.901 1031.63 889.758 1033.64 892.13 1035.03C894.503 1036.39 897.26 1037.07 900.402 1037.07C902.445 1037.07 904.29 1036.78 905.938 1036.21C907.608 1035.62 909.047 1034.74 910.255 1033.58C911.464 1032.39 912.397 1030.92 913.056 1029.16L920.57 1031.27C919.779 1033.82 918.45 1036.06 916.583 1037.99C914.715 1039.9 912.408 1041.4 909.662 1042.47C906.916 1043.53 903.829 1044.05 900.402 1044.05ZM940.969 975.509V1043H933.192V975.509H940.969ZM981.182 1043V1037.07L1003.46 1012.68C1006.07 1009.83 1008.23 1007.34 1009.92 1005.23C1011.61 1003.1 1012.86 1001.1 1013.67 999.236C1014.51 997.347 1014.93 995.37 1014.93 993.305C1014.93 990.932 1014.36 988.878 1013.21 987.142C1012.09 985.406 1010.56 984.066 1008.6 983.122C1006.64 982.177 1004.45 981.705 1002.01 981.705C999.417 981.705 997.154 982.243 995.22 983.319C993.309 984.374 991.826 985.857 990.771 987.768C989.739 989.68 989.223 991.92 989.223 994.491H981.445C981.445 990.536 982.357 987.065 984.181 984.077C986.004 981.089 988.487 978.761 991.628 977.091C994.792 975.421 998.34 974.586 1002.27 974.586C1006.23 974.586 1009.73 975.421 1012.79 977.091C1015.84 978.761 1018.23 981.012 1019.97 983.847C1021.7 986.681 1022.57 989.833 1022.57 993.305C1022.57 995.787 1022.12 998.215 1021.22 1000.59C1020.34 1002.94 1018.8 1005.56 1016.61 1008.46C1014.43 1011.34 1011.41 1014.86 1007.55 1019.01L992.386 1035.22V1035.75H1023.76V1043H981.182Z" fill="#6A6A6A"/>
</svg>
