<svg width="1290" height="2018" viewBox="0 0 1290 2018" fill="none" xmlns="http://www.w3.org/2000/svg">
<rect y="0.318542" width="1290" height="2017.68" fill="#D9D9D9"/>
<path d="M274.315 1043V975.509H282.092V1000.42H282.751C283.323 999.544 284.113 998.423 285.124 997.061C286.157 995.677 287.629 994.447 289.54 993.37C291.473 992.272 294.088 991.723 297.383 991.723C301.645 991.723 305.402 992.788 308.654 994.919C311.905 997.05 314.443 1000.07 316.266 1003.98C318.09 1007.89 319.001 1012.51 319.001 1017.82C319.001 1023.18 318.09 1027.83 316.266 1031.76C314.443 1035.67 311.916 1038.7 308.687 1040.86C305.457 1042.99 301.733 1044.05 297.515 1044.05C294.263 1044.05 291.66 1043.52 289.705 1042.44C287.749 1041.34 286.244 1040.1 285.19 1038.72C284.135 1037.31 283.323 1036.15 282.751 1035.22H281.829V1043H274.315ZM281.96 1017.69C281.96 1021.51 282.521 1024.89 283.641 1027.81C284.762 1030.71 286.398 1032.98 288.551 1034.63C290.704 1036.26 293.341 1037.07 296.46 1037.07C299.712 1037.07 302.425 1036.21 304.6 1034.5C306.797 1032.76 308.445 1030.43 309.543 1027.51C310.664 1024.57 311.224 1021.29 311.224 1017.69C311.224 1014.13 310.675 1010.92 309.576 1008.07C308.5 1005.19 306.863 1002.92 304.666 1001.25C302.491 999.555 299.756 998.709 296.46 998.709C293.297 998.709 290.638 999.511 288.485 1001.11C286.332 1002.7 284.707 1004.92 283.608 1007.77C282.51 1010.61 281.96 1013.91 281.96 1017.69ZM345.793 1044.19C342.586 1044.19 339.675 1043.58 337.06 1042.37C334.446 1041.14 332.37 1039.38 330.832 1037.07C329.294 1034.74 328.525 1031.93 328.525 1028.63C328.525 1025.73 329.096 1023.38 330.239 1021.58C331.381 1019.76 332.908 1018.33 334.819 1017.3C336.731 1016.26 338.84 1015.49 341.147 1014.99C343.476 1014.46 345.815 1014.04 348.166 1013.74C351.242 1013.34 353.735 1013.04 355.647 1012.85C357.58 1012.63 358.986 1012.26 359.865 1011.76C360.766 1011.25 361.216 1010.38 361.216 1009.12V1008.86C361.216 1005.61 360.326 1003.08 358.547 1001.28C356.789 999.478 354.12 998.577 350.539 998.577C346.826 998.577 343.915 999.39 341.806 1001.02C339.697 1002.64 338.214 1004.38 337.357 1006.22L329.975 1003.59C331.293 1000.51 333.051 998.116 335.248 996.402C337.467 994.667 339.884 993.458 342.498 992.777C345.134 992.074 347.727 991.723 350.275 991.723C351.901 991.723 353.768 991.92 355.877 992.316C358.009 992.689 360.063 993.469 362.04 994.656C364.039 995.842 365.698 997.633 367.016 1000.03C368.334 1002.42 368.993 1005.63 368.993 1009.65V1043H361.216V1036.15H360.821C360.293 1037.24 359.415 1038.42 358.184 1039.67C356.954 1040.92 355.317 1041.99 353.274 1042.87C351.231 1043.75 348.737 1044.19 345.793 1044.19ZM346.98 1037.2C350.055 1037.2 352.648 1036.6 354.757 1035.39C356.888 1034.18 358.492 1032.62 359.568 1030.71C360.667 1028.8 361.216 1026.79 361.216 1024.68V1017.56C360.887 1017.95 360.162 1018.32 359.041 1018.65C357.943 1018.95 356.668 1019.23 355.218 1019.47C353.79 1019.69 352.395 1019.89 351.033 1020.06C349.693 1020.22 348.605 1020.35 347.771 1020.46C345.749 1020.72 343.86 1021.15 342.102 1021.74C340.367 1022.32 338.961 1023.18 337.884 1024.35C336.83 1025.49 336.302 1027.05 336.302 1029.03C336.302 1031.73 337.302 1033.77 339.301 1035.16C341.323 1036.52 343.882 1037.2 346.98 1037.2ZM390.966 1012.55V1043H383.188V992.382H390.702V1000.29H391.361C392.548 997.72 394.349 995.655 396.766 994.095C399.182 992.514 402.302 991.723 406.125 991.723C409.552 991.723 412.551 992.426 415.121 993.832C417.692 995.216 419.691 997.325 421.119 1000.16C422.547 1002.97 423.261 1006.53 423.261 1010.84V1043H415.484V1011.36C415.484 1007.39 414.451 1004.29 412.386 1002.07C410.321 999.83 407.487 998.709 403.884 998.709C401.401 998.709 399.182 999.247 397.227 1000.32C395.294 1001.4 393.767 1002.97 392.646 1005.04C391.526 1007.1 390.966 1009.61 390.966 1012.55ZM445.25 1012.55V1043H437.473V992.382H444.987V1000.29H445.646C446.832 997.72 448.633 995.655 451.05 994.095C453.467 992.514 456.587 991.723 460.409 991.723C463.837 991.723 466.835 992.426 469.406 993.832C471.976 995.216 473.976 997.325 475.404 1000.16C476.832 1002.97 477.546 1006.53 477.546 1010.84V1043H469.768V1011.36C469.768 1007.39 468.736 1004.29 466.671 1002.07C464.605 999.83 461.771 998.709 458.168 998.709C455.686 998.709 453.467 999.247 451.512 1000.32C449.578 1001.4 448.051 1002.97 446.931 1005.04C445.81 1007.1 445.25 1009.61 445.25 1012.55ZM512.98 1044.05C508.103 1044.05 503.896 1042.98 500.358 1040.83C496.843 1038.65 494.13 1035.62 492.219 1031.73C490.329 1027.82 489.385 1023.27 489.385 1018.09C489.385 1012.9 490.329 1008.33 492.219 1004.38C494.13 1000.4 496.788 997.303 500.194 995.084C503.621 992.843 507.619 991.723 512.189 991.723C514.825 991.723 517.429 992.162 519.999 993.041C522.57 993.92 524.91 995.348 527.019 997.325C529.128 999.28 530.808 1001.87 532.061 1005.1C533.313 1008.33 533.939 1012.31 533.939 1017.03V1020.33H494.921V1013.6H526.03C526.03 1010.75 525.459 1008.2 524.316 1005.96C523.196 1003.72 521.592 1001.95 519.505 1000.65C517.44 999.357 515.001 998.709 512.189 998.709C509.091 998.709 506.411 999.478 504.148 1001.02C501.907 1002.53 500.183 1004.51 498.974 1006.95C497.766 1009.39 497.162 1012 497.162 1014.79V1019.27C497.162 1023.1 497.821 1026.34 499.139 1028.99C500.479 1031.63 502.336 1033.64 504.708 1035.03C507.081 1036.39 509.838 1037.07 512.98 1037.07C515.023 1037.07 516.869 1036.78 518.516 1036.21C520.186 1035.62 521.625 1034.74 522.833 1033.58C524.042 1032.39 524.975 1030.92 525.635 1029.16L533.148 1031.27C532.357 1033.82 531.028 1036.06 529.161 1037.99C527.293 1039.9 524.986 1041.4 522.24 1042.47C519.494 1043.53 516.407 1044.05 512.98 1044.05ZM545.77 1043V992.382H553.283V1000.03H553.811C554.733 997.523 556.403 995.491 558.82 993.931C561.236 992.371 563.961 991.591 566.993 991.591C567.564 991.591 568.278 991.602 569.135 991.624C569.991 991.646 570.639 991.679 571.079 991.723V999.632C570.815 999.566 570.211 999.467 569.266 999.335C568.344 999.181 567.366 999.105 566.333 999.105C563.873 999.105 561.676 999.621 559.743 1000.65C557.831 1001.66 556.315 1003.07 555.195 1004.87C554.096 1006.65 553.547 1008.68 553.547 1010.97V1043H545.77ZM600.985 972.345L579.235 1053.15H572.117L593.867 972.345H600.985ZM630.768 1044.05C626.022 1044.05 621.936 1042.93 618.509 1040.69C615.081 1038.45 612.445 1035.37 610.6 1031.43C608.754 1027.5 607.831 1023.01 607.831 1017.95C607.831 1012.81 608.776 1008.28 610.665 1004.34C612.577 1000.39 615.235 997.303 618.64 995.084C622.068 992.843 626.066 991.723 630.636 991.723C634.195 991.723 637.403 992.382 640.259 993.7C643.115 995.018 645.454 996.864 647.278 999.236C649.101 1001.61 650.233 1004.38 650.672 1007.54H642.895C642.302 1005.23 640.984 1003.19 638.94 1001.41C636.919 999.61 634.195 998.709 630.768 998.709C627.736 998.709 625.078 999.5 622.793 1001.08C620.53 1002.64 618.761 1004.85 617.487 1007.71C616.235 1010.54 615.609 1013.87 615.609 1017.69C615.609 1021.6 616.224 1025.01 617.454 1027.91C618.706 1030.81 620.464 1033.06 622.727 1034.66C625.012 1036.27 627.692 1037.07 630.768 1037.07C632.789 1037.07 634.623 1036.72 636.271 1036.01C637.919 1035.31 639.314 1034.3 640.456 1032.98C641.599 1031.66 642.412 1030.08 642.895 1028.24H650.672C650.233 1031.22 649.145 1033.92 647.41 1036.31C645.696 1038.68 643.422 1040.57 640.588 1041.98C637.776 1043.36 634.503 1044.05 630.768 1044.05ZM676.937 1044.19C673.73 1044.19 670.819 1043.58 668.204 1042.37C665.59 1041.14 663.514 1039.38 661.976 1037.07C660.438 1034.74 659.669 1031.93 659.669 1028.63C659.669 1025.73 660.24 1023.38 661.383 1021.58C662.525 1019.76 664.052 1018.33 665.963 1017.3C667.875 1016.26 669.984 1015.49 672.291 1014.99C674.619 1014.46 676.959 1014.04 679.31 1013.74C682.386 1013.34 684.879 1013.04 686.791 1012.85C688.724 1012.63 690.13 1012.26 691.009 1011.76C691.909 1011.25 692.36 1010.38 692.36 1009.12V1008.86C692.36 1005.61 691.47 1003.08 689.691 1001.28C687.933 999.478 685.264 998.577 681.683 998.577C677.97 998.577 675.059 999.39 672.95 1001.02C670.841 1002.64 669.358 1004.38 668.501 1006.22L661.119 1003.59C662.437 1000.51 664.195 998.116 666.392 996.402C668.611 994.667 671.027 993.458 673.642 992.777C676.278 992.074 678.87 991.723 681.419 991.723C683.045 991.723 684.912 991.92 687.021 992.316C689.152 992.689 691.206 993.469 693.184 994.656C695.183 995.842 696.842 997.633 698.16 1000.03C699.478 1002.42 700.137 1005.63 700.137 1009.65V1043H692.36V1036.15H691.964C691.437 1037.24 690.558 1038.42 689.328 1039.67C688.098 1040.92 686.461 1041.99 684.418 1042.87C682.375 1043.75 679.881 1044.19 676.937 1044.19ZM678.123 1037.2C681.199 1037.2 683.792 1036.6 685.901 1035.39C688.032 1034.18 689.636 1032.62 690.712 1030.71C691.811 1028.8 692.36 1026.79 692.36 1024.68V1017.56C692.03 1017.95 691.305 1018.32 690.185 1018.65C689.086 1018.95 687.812 1019.23 686.362 1019.47C684.934 1019.69 683.539 1019.89 682.177 1020.06C680.837 1020.22 679.749 1020.35 678.914 1020.46C676.893 1020.72 675.004 1021.15 673.246 1021.74C671.511 1022.32 670.105 1023.18 669.028 1024.35C667.973 1025.49 667.446 1027.05 667.446 1029.03C667.446 1031.73 668.446 1033.77 670.445 1035.16C672.466 1036.52 675.026 1037.2 678.123 1037.2ZM714.332 1043V992.382H721.846V1000.03H722.373C723.296 997.523 724.966 995.491 727.382 993.931C729.799 992.371 732.523 991.591 735.555 991.591C736.126 991.591 736.84 991.602 737.697 991.624C738.554 991.646 739.202 991.679 739.641 991.723V999.632C739.378 999.566 738.774 999.467 737.829 999.335C736.906 999.181 735.928 999.105 734.896 999.105C732.435 999.105 730.238 999.621 728.305 1000.65C726.394 1001.66 724.878 1003.07 723.757 1004.87C722.659 1006.65 722.11 1008.68 722.11 1010.97V1043H714.332ZM748.86 1043V992.382H756.374V1000.03H756.901C757.824 997.523 759.494 995.491 761.91 993.931C764.327 992.371 767.051 991.591 770.083 991.591C770.654 991.591 771.368 991.602 772.225 991.624C773.082 991.646 773.73 991.679 774.169 991.723V999.632C773.906 999.566 773.302 999.467 772.357 999.335C771.434 999.181 770.457 999.105 769.424 999.105C766.963 999.105 764.766 999.621 762.833 1000.65C760.922 1001.66 759.406 1003.07 758.285 1004.87C757.187 1006.65 756.638 1008.68 756.638 1010.97V1043H748.86ZM802.411 1044.05C797.842 1044.05 793.832 1042.97 790.383 1040.79C786.956 1038.62 784.276 1035.57 782.342 1031.66C780.431 1027.75 779.475 1023.18 779.475 1017.95C779.475 1012.68 780.431 1008.08 782.342 1004.15C784.276 1000.21 786.956 997.16 790.383 994.985C793.832 992.81 797.842 991.723 802.411 991.723C806.981 991.723 810.98 992.81 814.407 994.985C817.856 997.16 820.536 1000.21 822.448 1004.15C824.381 1008.08 825.348 1012.68 825.348 1017.95C825.348 1023.18 824.381 1027.75 822.448 1031.66C820.536 1035.57 817.856 1038.62 814.407 1040.79C810.98 1042.97 806.981 1044.05 802.411 1044.05ZM802.411 1037.07C805.883 1037.07 808.739 1036.18 810.98 1034.4C813.221 1032.62 814.879 1030.28 815.956 1027.38C817.032 1024.48 817.571 1021.34 817.571 1017.95C817.571 1014.57 817.032 1011.42 815.956 1008.5C814.879 1005.57 813.221 1003.21 810.98 1001.41C808.739 999.61 805.883 998.709 802.411 998.709C798.94 998.709 796.084 999.61 793.843 1001.41C791.602 1003.21 789.944 1005.57 788.867 1008.5C787.791 1011.42 787.252 1014.57 787.252 1017.95C787.252 1021.34 787.791 1024.48 788.867 1027.38C789.944 1030.28 791.602 1032.62 793.843 1034.4C796.084 1036.18 798.94 1037.07 802.411 1037.07ZM873.074 1003.72L866.088 1005.7C865.649 1004.53 865 1003.4 864.144 1002.3C863.309 1001.18 862.166 1000.26 860.716 999.533C859.266 998.808 857.41 998.445 855.147 998.445C852.049 998.445 849.468 999.159 847.403 1000.59C845.36 1001.99 844.338 1003.78 844.338 1005.96C844.338 1007.89 845.041 1009.42 846.447 1010.54C847.853 1011.66 850.05 1012.59 853.038 1013.34L860.552 1015.19C865.077 1016.28 868.45 1017.97 870.669 1020.23C872.888 1022.47 873.997 1025.36 873.997 1028.9C873.997 1031.8 873.162 1034.39 871.492 1036.67C869.845 1038.96 867.538 1040.76 864.572 1042.08C861.606 1043.4 858.157 1044.05 854.224 1044.05C849.061 1044.05 844.788 1042.93 841.405 1040.69C838.022 1038.45 835.88 1035.18 834.979 1030.87L842.361 1029.03C843.064 1031.75 844.393 1033.79 846.348 1035.16C848.325 1036.52 850.907 1037.2 854.092 1037.2C857.717 1037.2 860.596 1036.43 862.727 1034.89C864.88 1033.33 865.956 1031.47 865.956 1029.29C865.956 1027.53 865.341 1026.06 864.111 1024.88C862.88 1023.67 860.991 1022.77 858.442 1022.17L850.006 1020.2C845.371 1019.1 841.965 1017.39 839.79 1015.09C837.637 1012.76 836.561 1009.85 836.561 1006.35C836.561 1003.5 837.363 1000.97 838.966 998.775C840.592 996.578 842.8 994.853 845.59 993.601C848.402 992.349 851.588 991.723 855.147 991.723C860.156 991.723 864.089 992.821 866.945 995.018C869.823 997.215 871.866 1000.12 873.074 1003.72ZM906.927 1044.05C902.05 1044.05 897.842 1042.98 894.305 1040.83C890.79 1038.65 888.077 1035.62 886.165 1031.73C884.276 1027.82 883.331 1023.27 883.331 1018.09C883.331 1012.9 884.276 1008.33 886.165 1004.38C888.077 1000.4 890.735 997.303 894.14 995.084C897.568 992.843 901.566 991.723 906.136 991.723C908.772 991.723 911.376 992.162 913.946 993.041C916.517 993.92 918.856 995.348 920.965 997.325C923.075 999.28 924.755 1001.87 926.008 1005.1C927.26 1008.33 927.886 1012.31 927.886 1017.03V1020.33H888.868V1013.6H919.977C919.977 1010.75 919.406 1008.2 918.263 1005.96C917.143 1003.72 915.539 1001.95 913.452 1000.65C911.387 999.357 908.948 998.709 906.136 998.709C903.038 998.709 900.358 999.478 898.095 1001.02C895.854 1002.53 894.129 1004.51 892.921 1006.95C891.713 1009.39 891.109 1012 891.109 1014.79V1019.27C891.109 1023.1 891.768 1026.34 893.086 1028.99C894.426 1031.63 896.283 1033.64 898.655 1035.03C901.028 1036.39 903.785 1037.07 906.927 1037.07C908.97 1037.07 910.815 1036.78 912.463 1036.21C914.133 1035.62 915.572 1034.74 916.78 1033.58C917.989 1032.39 918.922 1030.92 919.581 1029.16L927.095 1031.27C926.304 1033.82 924.975 1036.06 923.108 1037.99C921.24 1039.9 918.933 1041.4 916.187 1042.47C913.441 1043.53 910.354 1044.05 906.927 1044.05ZM947.494 975.509V1043H939.717V975.509H947.494ZM1011.43 975.509V1043H1003.26V984.077H1002.87L986.388 995.018V986.714L1003.26 975.509H1011.43Z" fill="#6A6A6A"/>
</svg>
